<svg id="icon-sms" data-name="SMS Icon" xmlns="http://www.w3.org/2000/svg" viewBox="0 0 22 22"><path d="M19.6666667,1.66666667 L3.66666667,1.66666667 C2.56666667,1.66666667 1.67666667,2.56666667 1.67666667,3.66666667 L1.66666667,21.6666667 L5.66666667,17.6666667 L19.6666667,17.6666667 C20.7666667,17.6666667 21.6666667,16.7666667 21.6666667,15.6666667 L21.6666667,3.66666667 C21.6666667,2.56666667 20.7666667,1.66666667 19.6666667,1.66666667 Z M8.66666667,10.6666667 L6.66666667,10.6666667 L6.66666667,8.66666667 L8.66666667,8.66666667 L8.66666667,10.6666667 Z M12.6666667,10.6666667 L10.6666667,10.6666667 L10.6666667,8.66666667 L12.6666667,8.66666667 L12.6666667,10.6666667 Z M16.6666667,10.6666667 L14.6666667,10.6666667 L14.6666667,8.66666667 L16.6666667,8.66666667 L16.6666667,10.6666667 Z"></path></svg>