<svg id="icon-print" xmlns="http://www.w3.org/2000/svg" viewBox="0 0 28 28"><path d="M23,7a1.65,1.65,0,0,0-1.2-.49H6.2A1.65,1.65,0,0,0,5,7a1.7,1.7,0,0,0-.5,1.2V19.77A1.67,1.67,0,0,0,5,21a1.65,1.65,0,0,0,1.2.49H21.8A1.65,1.65,0,0,0,23,21a1.7,1.7,0,0,0,.5-1.2V8.23A1.67,1.67,0,0,0,23,7Zm-.86,12.74A.31.31,0,0,1,22,20a.35.35,0,0,1-.24.1H6.2a.35.35,0,0,1-.3-.34V11.62a5.36,5.36,0,0,0,.73.7q2.84,2.19,4.52,3.59c.36.3.65.54.88.71a5.06,5.06,0,0,0,.91.51,2.57,2.57,0,0,0,1.09.26h0a2.57,2.57,0,0,0,1.09-.26,5.06,5.06,0,0,0,.91-.51c.23-.17.52-.41.88-.71,1.12-.93,2.63-2.12,4.52-3.59a5.36,5.36,0,0,0,.73-.7Zm0-11.15A2.55,2.55,0,0,1,21.65,10a4.8,4.8,0,0,1-1.07,1.22L16.33,14.6l-.37.32c-.2.17-.37.3-.49.39a5.09,5.09,0,0,1-.47.34,2.47,2.47,0,0,1-.53.29A1.24,1.24,0,0,1,14,16h0a1.46,1.46,0,0,1-.46-.1,2.65,2.65,0,0,1-.54-.25,5.09,5.09,0,0,1-.47-.34c-.12-.09-.29-.22-.49-.39l-.37-.32L7.42,11.24a3.72,3.72,0,0,1-1.56-3A.33.33,0,0,1,6,8a.35.35,0,0,1,.24-.1H21.8a.38.38,0,0,1,.15,0,.16.16,0,0,1,.1.08l.06.09V8.6Z"/></svg>