<svg id="icon-print" data-name="Print Icon" xmlns="http://www.w3.org/2000/svg" viewBox="0 0 20 20"><path d="M19,3a1.63,1.63,0,0,0-1.2-.49H2.2A1.63,1.63,0,0,0,1,3a1.67,1.67,0,0,0-.5,1.2V15.77A1.67,1.67,0,0,0,1,17a1.63,1.63,0,0,0,1.2.49H17.8A1.63,1.63,0,0,0,19,17a1.67,1.67,0,0,0,.5-1.2V4.23A1.67,1.67,0,0,0,19,3Zm-.86,12.74A.33.33,0,0,1,18,16a.33.33,0,0,1-.24.1H2.2A.35.35,0,0,1,2,16a.33.33,0,0,1-.1-.24V7.62a5.36,5.36,0,0,0,.73.7q2.84,2.19,4.52,3.59c.36.3.65.54.88.71a4.61,4.61,0,0,0,.91.51,2.58,2.58,0,0,0,1.09.26h0a2.58,2.58,0,0,0,1.09-.26,4.61,4.61,0,0,0,.91-.51c.23-.17.52-.41.88-.71q1.68-1.39,4.52-3.59a5.36,5.36,0,0,0,.73-.7Zm0-11.15A2.63,2.63,0,0,1,17.65,6a4.8,4.8,0,0,1-1.07,1.22L12.33,10.6l-.37.32c-.2.17-.37.3-.49.39a4.91,4.91,0,0,1-.47.34,2.58,2.58,0,0,1-.53.29A1.42,1.42,0,0,1,10,12h0a1.42,1.42,0,0,1-.46-.1A2.58,2.58,0,0,1,9,11.65a4.91,4.91,0,0,1-.47-.34c-.12-.09-.29-.22-.49-.39l-.37-.32L3.42,7.24a3.7,3.7,0,0,1-1.56-3A.33.33,0,0,1,2,4a.35.35,0,0,1,.24-.1H17.8a.33.33,0,0,1,.15,0,.2.2,0,0,1,.1.08.7.7,0,0,0,.06.09,1.06,1.06,0,0,1,0,.14v.39Z"/></svg>