<svg id="icon-linkedin" data-name="LinkedIn Icon" xmlns="http://www.w3.org/2000/svg" viewBox="0 0 50 50"><path d="M12,6.67a5.1,5.1,0,0,1-1.64,4A6.12,6.12,0,0,1,6,12.24H5.92a5.83,5.83,0,0,1-4.29-1.6A5.3,5.3,0,0,1,0,6.67a5.23,5.23,0,0,1,1.68-4A6.06,6.06,0,0,1,6.05,1.11a5.9,5.9,0,0,1,4.33,1.58A5.39,5.39,0,0,1,12,6.67Zm-.68,10V48.89H.62V16.63ZM50,30.4V48.89H39.29V31.64A9.39,9.39,0,0,0,38,26.29a4.61,4.61,0,0,0-4.12-1.94,5.26,5.26,0,0,0-3.43,1.12,7,7,0,0,0-2.07,2.79A7.81,7.81,0,0,0,28,30.89v18H17.29q.06-13,.06-21.06t0-9.63l0-1.57H28v4.69h-.06a14.54,14.54,0,0,1,1.33-1.82,13.73,13.73,0,0,1,1.84-1.69,8.5,8.5,0,0,1,2.84-1.42,12.73,12.73,0,0,1,3.72-.5,11.56,11.56,0,0,1,9,3.69Q50,23.27,50,30.4Z"/></svg>