<svg id="Layer_1" data-name="Layer 1" xmlns="http://www.w3.org/2000/svg" viewBox="0 0 28 28"><path id="Youtube" d="M11.11,17.69v-8l7.56,4ZM27.72,8.31a6.17,6.17,0,0,0-1.11-2.82,4,4,0,0,0-2.81-1.2C19.88,4,14,4,14,4h0S8.12,4,4.2,4.29a4,4,0,0,0-2.81,1.2A6.17,6.17,0,0,0,.28,8.31,43.94,43.94,0,0,0,0,12.92v2.15a43.69,43.69,0,0,0,.28,4.61A6.17,6.17,0,0,0,1.39,22.5a4.68,4.68,0,0,0,3.09,1.21C6.72,23.93,14,24,14,24s5.88,0,9.8-.3a4,4,0,0,0,2.81-1.2,6.17,6.17,0,0,0,1.11-2.82A43.69,43.69,0,0,0,28,15.07V12.92A43.94,43.94,0,0,0,27.72,8.31Z"/></svg>