<svg id="icon-whatsapp" data-name="WhatsApp Icon" xmlns="http://www.w3.org/2000/svg" viewBox="0 0 50 50"><path d="M0.243877551,49.7767857 C1.59107143,45.4272959 3.15255102,41.2920918 4.58010204,37.0232143 C-4.88290816,20.4727041 6.82806122,1.84081633 22.690051,0.293112245 C37.6663265,-1.16836735 49.9454082,9.58877551 49.9827289,24.2696429 C50.0216837,39.7602041 34.9979592,52.7678571 18.0987245,47.4808673 C16.8239796,47.0821429 15.2466837,45.7826531 13.7625,45.6954082 C11.6882653,45.5732143 8.96989796,47.0625 6.8755102,47.7359694 C4.57984694,48.4744898 2.58367347,49.2145408 0.243877551,49.7767857 Z M14.2727041,41.1043367 C27.9193878,49.3864796 44.2602041,40.0969388 45.6464286,26.5653061 C46.9010204,14.3155612 37.119898,3.41607143 23.9653061,4.37423469 C8.94744898,5.46785714 -0.0734693878,23.3943878 9.17117347,36.5130102 C8.35280612,38.7556122 7.5869898,41.0507653 6.8755102,43.4 C9.38112245,42.6744898 11.6908163,41.7533163 14.2727041,41.1043367 Z"></path><path d="M19.6293367,12.7915816 C21.0647959,15.7941327 23.2852041,20.2352041 19.6293367,22.2293367 C21.4859694,26.1543367 24.5556122,28.8663265 28.5566327,30.6466837 C29.8872449,29.7665816 30.7609694,28.4295918 31.8727041,27.3308673 C34.1951531,28.2392857 36.3660714,29.2989796 38.2492347,30.6466837 C38.4428571,35.0346939 34.7451531,36.657398 31.617602,36.5132653 C25.0193878,36.2096939 15.9507653,27.8737245 13.7627551,21.7191327 C12.4642857,18.0673469 13.9576531,11.0826531 19.6293367,12.7915816 Z"></path></svg>