<svg id="icon-twitter" data-name="Twitter Icon" xmlns="http://www.w3.org/2000/svg" viewBox="0 0 20 20"><path d="M19.61,4.47a7.87,7.87,0,0,1-2,1.89c0,.11,0,.27,0,.48a9.69,9.69,0,0,1-.46,2.94,10.15,10.15,0,0,1-1.41,2.81A11.33,11.33,0,0,1,13.53,15a10.22,10.22,0,0,1-3.15,1.65,12.37,12.37,0,0,1-3.94.62A11.59,11.59,0,0,1,.39,15.61a9.13,9.13,0,0,0,1,0,8.1,8.1,0,0,0,4.89-1.56,4.07,4.07,0,0,1-2.29-.73,3.57,3.57,0,0,1-1.39-1.81,4.91,4.91,0,0,0,.74.06,4.06,4.06,0,0,0,1-.13,3.93,3.93,0,0,1-2.27-1.26,3.41,3.41,0,0,1-.89-2.33v0A4.16,4.16,0,0,0,3,8.31,3.62,3.62,0,0,1,1.67,7a3.42,3.42,0,0,1,.06-3.59,11.14,11.14,0,0,0,3.59,2.7A11.64,11.64,0,0,0,9.85,7.25a4.14,4.14,0,0,1-.09-.84,3.4,3.4,0,0,1,1.15-2.59A4,4,0,0,1,13.7,2.75a3.94,3.94,0,0,1,2.88,1.16A8.21,8.21,0,0,0,19.08,3a3.62,3.62,0,0,1-1.74,2A8.5,8.5,0,0,0,19.61,4.47Z"/></svg>